<svg width="136" height="136" viewBox="0 0 136 136" fill="none" xmlns="http://www.w3.org/2000/svg">
<rect width="136" height="136" rx="8" fill="white"/>
<path d="M18.4936 107V34.452H32.0491V46.2599H32.9465C34.4579 42.261 36.9297 39.1437 40.3619 36.908C43.7941 34.6409 47.9033 33.5073 52.6894 33.5073C57.5385 33.5073 61.6005 34.6409 64.8752 36.908C68.1814 39.1751 70.6217 42.2924 72.1961 46.2599H72.9518C74.6837 42.3869 77.4389 39.3011 81.2174 37.0025C84.996 34.6724 89.4987 33.5073 94.7257 33.5073C101.307 33.5073 106.675 35.5698 110.832 39.6947C115.02 43.8196 117.114 50.0385 117.114 58.3513V107H102.991V59.6737C102.991 54.7616 101.653 51.2035 98.9766 48.9994C96.3001 46.7952 93.1041 45.6931 89.3885 45.6931C84.7913 45.6931 81.2174 47.1101 78.6669 49.944C76.1164 52.7464 74.8411 56.3518 74.8411 60.7601V107H60.766V58.7763C60.766 54.8404 59.538 51.6758 57.082 49.2827C54.6259 46.8897 51.4299 45.6931 47.4939 45.6931C44.8174 45.6931 42.3456 46.4016 40.0785 47.8186C37.8429 49.204 36.0323 51.1405 34.6469 53.6281C33.2929 56.1156 32.6159 58.9968 32.6159 62.2715V107H18.4936Z" fill="black"/>
</svg>
